<svg width="18" height="15" viewBox="0 0 18 15" fill="none" xmlns="http://www.w3.org/2000/svg">
<path d="M16.2559 0.244078C16.5813 0.569515 16.5813 1.09715 16.2559 1.42259L2.92255 14.7559C2.59711 15.0814 2.06947 15.0814 1.74404 14.7559C1.4186 14.4305 1.4186 13.9028 1.74404 13.5774L15.0774 0.244078C15.4028 -0.0813592 15.9304 -0.0813592 16.2559 0.244078Z" fill="#667185"/>
<path d="M12.1662 1.9767C11.2276 1.53469 10.1694 1.25 8.99994 1.25C6.54653 1.25 4.58226 2.50308 3.18629 3.83307C1.7871 5.16611 0.879211 6.64973 0.519825 7.2915C0.284307 7.71207 0.256257 8.21426 0.44958 8.66031C0.584591 8.97181 0.814195 9.45437 1.15261 10.0143C1.39065 10.4082 1.90294 10.5346 2.29684 10.2965C2.69073 10.0585 2.81708 9.54621 2.57903 9.15232C2.30684 8.70192 2.11797 8.31241 2.0034 8.05369C2.34153 7.45778 3.14233 6.17693 4.33593 5.03975C5.56883 3.86513 7.14165 2.91667 8.99994 2.91667C9.66833 2.91667 10.2998 3.03937 10.8918 3.25116L12.1662 1.9767Z" fill="#667185"/>
<path d="M13.7421 5.11491C14.8925 6.23288 15.6658 7.47087 15.9965 8.05369C15.8819 8.31241 15.693 8.70192 15.4209 9.15232C15.1828 9.54621 15.3092 10.0585 15.7031 10.2965C16.0969 10.5346 16.6092 10.4082 16.8473 10.0143C17.1857 9.45437 17.4153 8.97181 17.5503 8.6603C17.7436 8.21426 17.7156 7.71207 17.4801 7.2915C17.1299 6.66625 16.2592 5.24193 14.9207 3.93629L13.7421 5.11491Z" fill="#667185"/>
<path d="M8.99996 4.16667C9.30281 4.16667 9.59811 4.19898 9.8826 4.26034L8.16774 5.97519C7.4565 6.2262 6.89283 6.78987 6.64182 7.50112L4.92696 9.21597C4.8656 8.93148 4.83329 8.63618 4.83329 8.33333C4.83329 6.03215 6.69877 4.16667 8.99996 4.16667Z" fill="#667185"/>
<path d="M8.99996 10.8333C8.70756 10.8333 8.42689 10.7831 8.16609 10.6909L6.91522 11.9418C7.5284 12.2968 8.24045 12.5 8.99996 12.5C11.3011 12.5 13.1666 10.6345 13.1666 8.33333C13.1666 7.57382 12.9634 6.86177 12.6084 6.24859L11.3575 7.49947C11.4498 7.76027 11.5 8.04094 11.5 8.33333C11.5 9.71405 10.3807 10.8333 8.99996 10.8333Z" fill="#667185"/>
</svg>
