<svg width="36" height="37" viewBox="0 0 36 37" fill="none" xmlns="http://www.w3.org/2000/svg">
<g filter="url(#filter0_d_25_8232)">
<path fill-rule="evenodd" clip-rule="evenodd" d="M18 21.5C22.4183 21.5 26 17.9183 26 13.5C26 9.08172 22.4183 5.5 18 5.5C13.5817 5.5 10 9.08172 10 13.5C10 17.9183 13.5817 21.5 18 21.5Z" fill="#EB0000"/>
</g>
<path d="M19.0944 9.276L18.8544 15.024H17.1144L16.8744 9.276H19.0944ZM18.0144 18.096C17.6544 18.096 17.3584 17.992 17.1264 17.784C16.9024 17.568 16.7904 17.304 16.7904 16.992C16.7904 16.672 16.9024 16.404 17.1264 16.188C17.3584 15.972 17.6544 15.864 18.0144 15.864C18.3664 15.864 18.6544 15.972 18.8784 16.188C19.1104 16.404 19.2264 16.672 19.2264 16.992C19.2264 17.304 19.1104 17.568 18.8784 17.784C18.6544 17.992 18.3664 18.096 18.0144 18.096Z" fill="white"/>
<defs>
<filter id="filter0_d_25_8232" x="0" y="0.5" width="36" height="36" filterUnits="userSpaceOnUse" color-interpolation-filters="sRGB">
<feFlood flood-opacity="0" result="BackgroundImageFix"/>
<feColorMatrix in="SourceAlpha" type="matrix" values="0 0 0 0 0 0 0 0 0 0 0 0 0 0 0 0 0 0 127 0" result="hardAlpha"/>
<feOffset dy="5"/>
<feGaussianBlur stdDeviation="5"/>
<feColorMatrix type="matrix" values="0 0 0 0 0.921569 0 0 0 0 0 0 0 0 0 0 0 0 0 0.2 0"/>
<feBlend mode="normal" in2="BackgroundImageFix" result="effect1_dropShadow_25_8232"/>
<feBlend mode="normal" in="SourceGraphic" in2="effect1_dropShadow_25_8232" result="shape"/>
</filter>
</defs>
</svg>
