<svg width="56" height="56" viewBox="0 0 56 56" fill="none" xmlns="http://www.w3.org/2000/svg">
<rect width="56" height="56" rx="28" fill="#21B55A" fill-opacity="0.06"/>
<path d="M24.4133 31.6L26.4133 33.6L31.7467 28.2667" stroke="#21B55A" stroke-width="1.5" stroke-linecap="round" stroke-linejoin="round"/>
<path d="M25.3333 20H30.6667C33.3333 20 33.3333 18.6667 33.3333 17.3334C33.3333 14.6667 32 14.6667 30.6667 14.6667H25.3333C24 14.6667 22.6667 14.6667 22.6667 17.3334C22.6667 20 24 20 25.3333 20Z" stroke="#21B55A" stroke-width="1.5" stroke-miterlimit="10" stroke-linecap="round" stroke-linejoin="round"/>
<path d="M33.3333 17.36C37.7733 17.6 40 19.24 40 25.3333V33.3333C40 38.6667 38.6667 41.3333 32 41.3333H24C17.3333 41.3333 16 38.6667 16 33.3333V25.3333C16 19.2533 18.2267 17.6 22.6667 17.36" stroke="#21B55A" stroke-width="1.5" stroke-miterlimit="10" stroke-linecap="round" stroke-linejoin="round"/>
</svg>
