<svg width="16" height="20" viewBox="0 0 16 20" fill="none" xmlns="http://www.w3.org/2000/svg">
<path d="M3.83333 10.0002C3.83333 9.53992 4.20643 9.16683 4.66667 9.16683H11.3333C11.7936 9.16683 12.1667 9.53992 12.1667 10.0002C12.1667 10.4604 11.7936 10.8335 11.3333 10.8335H4.66667C4.20643 10.8335 3.83333 10.4604 3.83333 10.0002Z" fill="white"/>
<path d="M4.66667 13.3335C4.20643 13.3335 3.83333 13.7066 3.83333 14.1668C3.83333 14.6271 4.20643 15.0002 4.66667 15.0002H11.3333C11.7936 15.0002 12.1667 14.6271 12.1667 14.1668C12.1667 13.7066 11.7936 13.3335 11.3333 13.3335H4.66667Z" fill="white"/>
<path fill-rule="evenodd" clip-rule="evenodd" d="M3.83333 0.833496C1.99238 0.833496 0.5 2.32588 0.5 4.16683V15.8335C0.5 17.6744 1.99238 19.1668 3.83333 19.1668H12.1667C14.0076 19.1668 15.5 17.6744 15.5 15.8335V7.57195C15.5 6.79217 15.2266 6.03706 14.7274 5.43801L11.8898 2.03288C11.2565 1.27291 10.3183 0.833496 9.32906 0.833496H3.83333ZM2.16667 4.16683C2.16667 3.24635 2.91286 2.50016 3.83333 2.50016H8.83333V5.00016C8.83333 6.84111 10.3257 8.3335 12.1667 8.3335H13.8333V15.8335C13.8333 16.754 13.0871 17.5002 12.1667 17.5002H3.83333C2.91286 17.5002 2.16667 16.754 2.16667 15.8335V4.16683ZM13.5661 6.66683C13.5299 6.61078 13.4901 6.55672 13.447 6.50498L10.6094 3.09986C10.5747 3.05821 10.5382 3.01849 10.5 2.98078V5.00016C10.5 5.92064 11.2462 6.66683 12.1667 6.66683H13.5661Z" fill="white"/>
</svg>
