<svg width="42" height="42" viewBox="0 0 42 42" fill="none" xmlns="http://www.w3.org/2000/svg">
<rect width="42" height="42" rx="8" fill="#079455" fill-opacity="0.12"/>
<path d="M15.25 12C14.388 12 13.5614 12.3424 12.9519 12.9519C12.3424 13.5614 12 14.388 12 15.25V26.75C12 27.612 12.3424 28.4386 12.9519 29.0481C13.5614 29.6576 14.388 30 15.25 30H26.75C27.612 30 28.4386 29.6576 29.0481 29.0481C29.6576 28.4386 30 27.612 30 26.75V15.25C30 14.388 29.6576 13.5614 29.0481 12.9519C28.4386 12.3424 27.612 12 26.75 12H15.25ZM13.5 15.25C13.5 14.284 14.284 13.5 15.25 13.5H26.75C27.716 13.5 28.5 14.284 28.5 15.25V26.75C28.5 27.2141 28.3156 27.6592 27.9874 27.9874C27.6592 28.3156 27.2141 28.5 26.75 28.5H15.25C14.7859 28.5 14.3408 28.3156 14.0126 27.9874C13.6844 27.6592 13.5 27.2141 13.5 26.75V15.25ZM26.28 18.28C26.3537 18.2113 26.4128 18.1285 26.4538 18.0365C26.4948 17.9445 26.5168 17.8452 26.5186 17.7445C26.5204 17.6438 26.5018 17.5438 26.4641 17.4504C26.4264 17.357 26.3703 17.2722 26.299 17.201C26.2278 17.1297 26.143 17.0736 26.0496 17.0359C25.9562 16.9982 25.8562 16.9796 25.7555 16.9814C25.6548 16.9832 25.5555 17.0052 25.4635 17.0462C25.3715 17.0872 25.2887 17.1463 25.22 17.22L18.997 23.436L16.78 21.22C16.6378 21.0875 16.4498 21.0154 16.2555 21.0188C16.0612 21.0223 15.8758 21.101 15.7384 21.2384C15.601 21.3758 15.5223 21.5612 15.5188 21.7555C15.5154 21.9498 15.5875 22.1378 15.72 22.28L18.465 25.026C18.6056 25.1664 18.7962 25.2453 18.995 25.2453C19.1938 25.2453 19.3844 25.1664 19.525 25.026L26.28 18.28Z" fill="#079455"/>
</svg>
