<svg width="25" height="25" viewBox="0 0 25 25" fill="none" xmlns="http://www.w3.org/2000/svg">
<path fill-rule="evenodd" clip-rule="evenodd" d="M12.5 21.8251C12.5 22.1014 12.7242 22.3267 13.0002 22.3131C18.2939 22.0525 22.5059 17.6779 22.5059 12.3196C22.5059 6.79349 18.026 2.31372 12.5 2.31372C6.97391 2.31372 2.49414 6.79349 2.49414 12.3196C2.49414 16.9474 5.63587 20.8414 9.90281 21.985C10.2083 22.067 10.4988 21.8296 10.4988 21.5133V14.3208H9.49824C8.94563 14.3208 8.49766 13.8728 8.49766 13.3202C8.49766 12.7675 8.94564 12.3196 9.49824 12.3196H10.4988V10.3184C10.4988 8.66059 11.8427 7.31665 13.5006 7.31665H14.5012C15.0538 7.31665 15.5018 7.76463 15.5018 8.31724C15.5018 8.86985 15.0538 9.31782 14.5012 9.31782H13.5006C12.948 9.31782 12.5 9.76581 12.5 10.3184V12.3196H14.5012C15.0538 12.3196 15.5018 12.7675 15.5018 13.3202C15.5018 13.8728 15.0538 14.3208 14.5012 14.3208H12.5V21.8251Z" fill="white"/>
</svg>
